Title                            : El secreto de sus ojos
Also Known As                    : The Secret in Their Eyes
Year                             : 2009
Genre                            : Crime | Drama | Mystery | Romance | Thriller
iMDB URL                         : http://www.imdb.com/title/tt1305806/
Awards                           : Nominated for Oscar. Another 14 wins & 10 nominations

Complete name                    : El.secreto.de.sus.ojos.2009.DVDRIP.XviD-ZEKTORM.avi
Format                           : AVI
File size                        : 700 MiB
Duration                         : 2h 9mn
Overall bit rate                 : 756 Kbps
Subtitles                        : English, Spanish (Format: VobSub/srt)

Video
Format                           : MPEG-4 Visual
Format profile                   : Streaming Video@L1
Codec ID/Hint                    : XviD
Duration                         : 2h 9mn
Bit rate                         : 639 Kbps
Width                            : 720 pixels
Height                           : 304 pixels
Display aspect ratio             : 2.35
Frame rate                       : 23.976 fps
Resolution                       : 24 bits
Colorimetry                      : 4:2:0
Scan type                        : Progressive
Bits/(Pixel*Frame)               : 0.122
Stream size                      : 592 MiB (84%)
Writing library                  : XviD

Audio
Format                           : MPEG Audio
Format version                   : Version 1
Format profile                   : Layer 3
Codec ID                         : 55
Codec ID/Hint                    : MP3
Duration                         : 2h 9mn
Bit rate mode                    : Variable
Bit rate                         : 105 Kbps
Minimum bit rate                 : 128 Kbps
Channel(s)                       : 2 channels
Sampling rate                    : 48.0 KHz
Resolution                       : 16 bits
Stream size                      : 96.9 MiB (14%)
Writing library                  : LAME3.98r
Encoding settings                : ABR
